<svg width="320" height="74" viewBox="0 0 320 74" fill="none" xmlns="http://www.w3.org/2000/svg">
<path d="M41.691 38.57C42.329 38.57 42.835 38.768 43.209 39.164C43.583 39.538 43.77 40.044 43.77 40.682V60.053C43.77 60.691 43.572 61.208 43.176 61.604C42.802 62 42.307 62.198 41.691 62.198C41.053 62.198 40.547 62 40.173 61.604C39.799 61.208 39.612 60.691 39.612 60.053V51.902H27.699V60.053C27.699 60.691 27.501 61.208 27.105 61.604C26.731 62 26.225 62.198 25.587 62.198C24.971 62.198 24.465 62 24.069 61.604C23.695 61.208 23.508 60.691 23.508 60.053V40.682C23.508 40.044 23.695 39.538 24.069 39.164C24.443 38.768 24.949 38.57 25.587 38.57C26.225 38.57 26.731 38.768 27.105 39.164C27.501 39.538 27.699 40.044 27.699 40.682V48.47H39.612V40.682C39.612 40.044 39.799 39.538 40.173 39.164C40.547 38.768 41.053 38.57 41.691 38.57ZM59.1356 62.297C56.8696 62.297 54.9006 61.813 53.2286 60.845C51.5786 59.877 50.3026 58.491 49.4006 56.687C48.4986 54.883 48.0476 52.771 48.0476 50.351C48.0476 47.931 48.4876 45.83 49.3676 44.048C50.2696 42.244 51.5566 40.858 53.2286 39.89C54.9006 38.922 56.8696 38.438 59.1356 38.438C61.4016 38.438 63.3596 38.922 65.0096 39.89C66.6816 40.858 67.9576 42.244 68.8376 44.048C69.7396 45.83 70.1906 47.931 70.1906 50.351C70.1906 52.771 69.7396 54.883 68.8376 56.687C67.9356 58.491 66.6486 59.877 64.9766 60.845C63.3266 61.813 61.3796 62.297 59.1356 62.297ZM59.1356 58.898C61.2696 58.898 62.9306 58.161 64.1186 56.687C65.3286 55.213 65.9336 53.101 65.9336 50.351C65.9336 47.601 65.3286 45.5 64.1186 44.048C62.9306 42.574 61.2696 41.837 59.1356 41.837C56.9796 41.837 55.2966 42.574 54.0866 44.048C52.8986 45.5 52.3046 47.601 52.3046 50.351C52.3046 53.101 52.8986 55.213 54.0866 56.687C55.2966 58.161 56.9796 58.898 59.1356 58.898ZM76.5034 62C75.8654 62 75.3704 61.824 75.0184 61.472C74.6664 61.12 74.4904 60.636 74.4904 60.02V40.682C74.4904 40.044 74.6774 39.538 75.0514 39.164C75.4474 38.768 75.9644 38.57 76.6024 38.57C77.2624 38.57 77.7794 38.768 78.1534 39.164C78.5494 39.538 78.7474 40.044 78.7474 40.682V58.502H88.0204C89.3404 58.502 90.0004 59.085 90.0004 60.251C90.0004 61.417 89.3404 62 88.0204 62H76.5034ZM94.8411 62C94.2031 62 93.6971 61.824 93.3231 61.472C92.9711 61.12 92.7951 60.625 92.7951 59.987V40.748C92.7951 40.11 92.9711 39.615 93.3231 39.263C93.6971 38.911 94.2031 38.735 94.8411 38.735H101.375C105.181 38.735 108.129 39.758 110.219 41.804C112.331 43.828 113.387 46.677 113.387 50.351C113.387 54.047 112.331 56.918 110.219 58.964C108.129 60.988 105.181 62 101.375 62H94.8411ZM101.111 58.535C106.457 58.535 109.13 55.807 109.13 50.351C109.13 44.917 106.457 42.2 101.111 42.2H97.0521V58.535H101.111ZM224.035 49.988C225.377 50.362 226.411 51.044 227.137 52.034C227.885 53.024 228.259 54.234 228.259 55.664C228.259 57.644 227.544 59.195 226.114 60.317C224.706 61.439 222.759 62 220.273 62H211.759C211.121 62 210.615 61.824 210.241 61.472C209.889 61.12 209.713 60.625 209.713 59.987V40.748C209.713 40.11 209.889 39.615 210.241 39.263C210.615 38.911 211.121 38.735 211.759 38.735H219.943C222.363 38.735 224.255 39.274 225.619 40.352C227.005 41.408 227.698 42.893 227.698 44.807C227.698 46.039 227.368 47.106 226.708 48.008C226.07 48.91 225.179 49.57 224.035 49.988ZM213.871 48.536H219.25C222.176 48.536 223.639 47.447 223.639 45.269C223.639 44.169 223.276 43.355 222.55 42.827C221.824 42.299 220.724 42.035 219.25 42.035H213.871V48.536ZM219.811 58.7C221.351 58.7 222.473 58.425 223.177 57.875C223.881 57.325 224.233 56.467 224.233 55.301C224.233 54.135 223.87 53.266 223.144 52.694C222.44 52.122 221.329 51.836 219.811 51.836H213.871V58.7H219.811ZM242.601 62.297C240.335 62.297 238.366 61.813 236.694 60.845C235.044 59.877 233.768 58.491 232.866 56.687C231.964 54.883 231.513 52.771 231.513 50.351C231.513 47.931 231.953 45.83 232.833 44.048C233.735 42.244 235.022 40.858 236.694 39.89C238.366 38.922 240.335 38.438 242.601 38.438C244.867 38.438 246.825 38.922 248.475 39.89C250.147 40.858 251.423 42.244 252.303 44.048C253.205 45.83 253.656 47.931 253.656 50.351C253.656 52.771 253.205 54.883 252.303 56.687C251.401 58.491 250.114 59.877 248.442 60.845C246.792 61.813 244.845 62.297 242.601 62.297ZM242.601 58.898C244.735 58.898 246.396 58.161 247.584 56.687C248.794 55.213 249.399 53.101 249.399 50.351C249.399 47.601 248.794 45.5 247.584 44.048C246.396 42.574 244.735 41.837 242.601 41.837C240.445 41.837 238.762 42.574 237.552 44.048C236.364 45.5 235.77 47.601 235.77 50.351C235.77 53.101 236.364 55.213 237.552 56.687C238.762 58.161 240.445 58.898 242.601 58.898ZM268.318 62.297C266.052 62.297 264.083 61.813 262.411 60.845C260.761 59.877 259.485 58.491 258.583 56.687C257.681 54.883 257.23 52.771 257.23 50.351C257.23 47.931 257.67 45.83 258.55 44.048C259.452 42.244 260.739 40.858 262.411 39.89C264.083 38.922 266.052 38.438 268.318 38.438C270.584 38.438 272.542 38.922 274.192 39.89C275.864 40.858 277.14 42.244 278.02 44.048C278.922 45.83 279.373 47.931 279.373 50.351C279.373 52.771 278.922 54.883 278.02 56.687C277.118 58.491 275.831 59.877 274.159 60.845C272.509 61.813 270.562 62.297 268.318 62.297ZM268.318 58.898C270.452 58.898 272.113 58.161 273.301 56.687C274.511 55.213 275.116 53.101 275.116 50.351C275.116 47.601 274.511 45.5 273.301 44.048C272.113 42.574 270.452 41.837 268.318 41.837C266.162 41.837 264.479 42.574 263.269 44.048C262.081 45.5 261.487 47.601 261.487 50.351C261.487 53.101 262.081 55.213 263.269 56.687C264.479 58.161 266.162 58.898 268.318 58.898ZM297.809 58.601C299.129 58.601 299.789 59.162 299.789 60.284C299.789 61.428 299.129 62 297.809 62H283.751C283.179 62 282.717 61.835 282.365 61.505C282.035 61.153 281.87 60.713 281.87 60.185C281.87 59.657 282.046 59.151 282.398 58.667L294.212 42.134H283.883C282.563 42.134 281.903 41.573 281.903 40.451C281.903 39.307 282.563 38.735 283.883 38.735H297.512C298.084 38.735 298.535 38.911 298.865 39.263C299.217 39.593 299.393 40.011 299.393 40.517C299.393 41.023 299.206 41.529 298.832 42.035L287.018 58.601H297.809ZM305.087 62C304.449 62 303.943 61.824 303.569 61.472C303.217 61.12 303.041 60.625 303.041 59.987V40.748C303.041 40.11 303.217 39.615 303.569 39.263C303.943 38.911 304.449 38.735 305.087 38.735H317C317.638 38.735 318.133 38.878 318.485 39.164C318.837 39.45 319.013 39.857 319.013 40.385C319.013 40.935 318.837 41.364 318.485 41.672C318.133 41.958 317.638 42.101 317 42.101H307.199V48.503H316.34C316.978 48.503 317.473 48.646 317.825 48.932C318.177 49.218 318.353 49.636 318.353 50.186C318.353 50.714 318.177 51.121 317.825 51.407C317.473 51.693 316.978 51.836 316.34 51.836H307.199V58.634H317C317.638 58.634 318.133 58.788 318.485 59.096C318.837 59.382 319.013 59.8 319.013 60.35C319.013 60.878 318.837 61.285 318.485 61.571C318.133 61.857 317.638 62 317 62H305.087Z" fill="#00F0FF"/>
<path d="M132.194 39.296C132.59 38.812 133.063 38.57 133.613 38.57C134.119 38.57 134.57 38.768 134.966 39.164C135.362 39.538 135.56 39.989 135.56 40.517C135.56 40.957 135.395 41.375 135.065 41.771L127.574 50.912V60.053C127.574 60.735 127.376 61.263 126.98 61.637C126.584 62.011 126.078 62.198 125.462 62.198C124.824 62.198 124.307 62.011 123.911 61.637C123.515 61.263 123.317 60.735 123.317 60.053V50.912L115.826 41.771C115.496 41.375 115.331 40.957 115.331 40.517C115.331 39.989 115.529 39.538 115.925 39.164C116.321 38.768 116.772 38.57 117.278 38.57C117.828 38.57 118.301 38.812 118.697 39.296L125.462 47.678L132.194 39.296ZM147.211 62.297C144.945 62.297 142.976 61.813 141.304 60.845C139.654 59.877 138.378 58.491 137.476 56.687C136.574 54.883 136.123 52.771 136.123 50.351C136.123 47.931 136.563 45.83 137.443 44.048C138.345 42.244 139.632 40.858 141.304 39.89C142.976 38.922 144.945 38.438 147.211 38.438C149.477 38.438 151.435 38.922 153.085 39.89C154.757 40.858 156.033 42.244 156.913 44.048C157.815 45.83 158.266 47.931 158.266 50.351C158.266 52.771 157.815 54.883 156.913 56.687C156.011 58.491 154.724 59.877 153.052 60.845C151.402 61.813 149.455 62.297 147.211 62.297ZM147.211 58.898C149.345 58.898 151.006 58.161 152.194 56.687C153.404 55.213 154.009 53.101 154.009 50.351C154.009 47.601 153.404 45.5 152.194 44.048C151.006 42.574 149.345 41.837 147.211 41.837C145.055 41.837 143.372 42.574 142.162 44.048C140.974 45.5 140.38 47.601 140.38 50.351C140.38 53.101 140.974 55.213 142.162 56.687C143.372 58.161 145.055 58.898 147.211 58.898ZM172.169 62.297C168.979 62.297 166.559 61.472 164.909 59.822C163.259 58.172 162.434 55.763 162.434 52.595V40.682C162.434 40.044 162.621 39.538 162.995 39.164C163.369 38.768 163.875 38.57 164.513 38.57C165.151 38.57 165.657 38.768 166.031 39.164C166.405 39.538 166.592 40.044 166.592 40.682V52.826C166.592 54.828 167.065 56.346 168.011 57.38C168.957 58.392 170.343 58.898 172.169 58.898C173.973 58.898 175.348 58.381 176.294 57.347C177.24 56.313 177.713 54.806 177.713 52.826V40.682C177.713 40.044 177.9 39.538 178.274 39.164C178.648 38.768 179.154 38.57 179.792 38.57C180.43 38.57 180.936 38.768 181.31 39.164C181.684 39.538 181.871 40.044 181.871 40.682V52.595C181.871 55.741 181.046 58.15 179.396 59.822C177.746 61.472 175.337 62.297 172.169 62.297ZM205.38 59.327C205.644 59.723 205.776 60.108 205.776 60.482C205.776 60.988 205.567 61.406 205.149 61.736C204.753 62.066 204.28 62.231 203.73 62.231C203.378 62.231 203.037 62.154 202.707 62C202.399 61.824 202.135 61.571 201.915 61.241L197.526 54.575C197.086 53.871 196.613 53.376 196.107 53.09C195.623 52.804 194.985 52.661 194.193 52.661H190.959V60.053C190.959 60.713 190.772 61.241 190.398 61.637C190.024 62.011 189.518 62.198 188.88 62.198C188.242 62.198 187.725 62.011 187.329 61.637C186.955 61.241 186.768 60.713 186.768 60.053V40.748C186.768 40.11 186.944 39.615 187.296 39.263C187.67 38.911 188.176 38.735 188.814 38.735H197.064C199.704 38.735 201.706 39.329 203.07 40.517C204.456 41.683 205.149 43.377 205.149 45.599C205.149 47.403 204.632 48.888 203.598 50.054C202.586 51.198 201.145 51.935 199.275 52.265C199.913 52.419 200.474 52.694 200.958 53.09C201.442 53.486 201.915 54.036 202.377 54.74L205.38 59.327ZM196.47 49.394C198.076 49.394 199.253 49.097 200.001 48.503C200.749 47.887 201.123 46.952 201.123 45.698C201.123 44.422 200.749 43.498 200.001 42.926C199.253 42.332 198.076 42.035 196.47 42.035H190.926V49.394H196.47Z" fill="#FF238D"/>
<path d="M59.5 22.1281C59.5 22.1281 60.886 35 56.943 35C53 35 48.087 38.6531 48.087 38.6531L35.99 26.3401C35.99 26.3401 34.047 22.5601 37.828 22.1281H59.5Z" fill="#00F0FF"/>
<path d="M44.218 6.91904C44.218 8.46578 43.6036 9.94917 42.5098 11.0429C41.4161 12.1366 39.9327 12.751 38.386 12.751C36.8393 12.751 35.3559 12.1366 34.2622 11.0429C33.1684 9.94917 32.554 8.46578 32.554 6.91904C32.554 5.37229 33.1684 3.8889 34.2622 2.79519C35.3559 1.70148 36.8393 1.08704 38.386 1.08704C39.9327 1.08704 41.4161 1.70148 42.5098 2.79519C43.6036 3.8889 44.218 5.37229 44.218 6.91904Z" fill="#FF238D"/>
<path d="M39.063 31.6781L32.642 25.1541V14.8331C32.655 14.6811 32.663 14.5271 32.663 14.3711C32.663 13.4367 32.4386 12.5161 32.0086 11.6866C31.5787 10.8571 30.9557 10.143 30.1922 9.60449C29.4288 9.06594 28.5471 8.71867 27.6214 8.5919C26.6957 8.46514 25.7532 8.56259 24.873 8.87606L24.867 8.84306L24.717 8.93405C24.0519 9.19299 23.4398 9.57157 22.911 10.0511L11.136 17.3311C11.063 17.3751 10.99 17.4181 10.919 17.4651L10.718 17.5891L10.723 17.5981C9.96063 18.1353 9.33845 18.8479 8.90879 19.6757C8.47914 20.5035 8.25458 21.4224 8.25401 22.3551L8.23301 22.3421V58.1181C8.16496 58.7472 8.23146 59.3836 8.42811 59.985C8.62476 60.5864 8.94706 61.1392 9.37363 61.6066C9.80019 62.074 10.3213 62.4453 10.9023 62.696C11.4833 62.9466 12.111 63.0708 12.7437 63.0604C13.3764 63.05 13.9996 62.9051 14.5721 62.6355C15.1445 62.3658 15.6531 61.9775 16.064 61.4963C16.4749 61.0151 16.7788 60.452 16.9555 59.8444C17.1323 59.2368 17.1778 58.5986 17.089 57.9721V27.5251L16.946 27.4421L17.011 27.4051L17.089 27.5251L26.809 21.1821V27.9571L35.098 35.9781L35.116 35.9591C35.3926 36.2419 35.7238 36.4656 36.0895 36.6164C36.4553 36.7672 36.8479 36.8421 37.2434 36.8363C37.639 36.8306 38.0293 36.7444 38.3905 36.5831C38.7517 36.4217 39.0763 36.1886 39.3445 35.8978C39.6128 35.607 39.819 35.2647 39.9508 34.8916C40.0825 34.5186 40.1369 34.1226 40.1108 33.7279C40.0846 33.3331 39.9784 32.9479 39.7987 32.5955C39.6189 32.2431 39.3693 31.9309 39.065 31.6781H39.063Z" fill="#FF238D"/>
<path d="M52.338 17.091C52.338 17.3488 52.2356 17.596 52.0533 17.7783C51.871 17.9606 51.6238 18.063 51.366 18.063C51.1082 18.063 50.861 17.9606 50.6787 17.7783C50.4964 17.596 50.394 17.3488 50.394 17.091C50.394 16.8332 50.4964 16.586 50.6787 16.4037C50.861 16.2214 51.1082 16.119 51.366 16.119C51.6238 16.119 51.871 16.2214 52.0533 16.4037C52.2356 16.586 52.338 16.8332 52.338 17.091Z" fill="#00F0FF"/>
<path d="M50.07 18.171C50.07 18.4288 49.9676 18.676 49.7853 18.8583C49.603 19.0406 49.3558 19.143 49.098 19.143C48.8402 19.143 48.593 19.0406 48.4107 18.8583C48.2284 18.676 48.126 18.4288 48.126 18.171C48.126 17.9132 48.2284 17.666 48.4107 17.4837C48.593 17.3014 48.8402 17.199 49.098 17.199C49.3558 17.199 49.603 17.3014 49.7853 17.4837C49.9676 17.666 50.07 17.9132 50.07 18.171Z" fill="#00F0FF"/>
<path d="M44.575 13.0831C44.5743 12.8898 44.6505 12.7043 44.7866 12.5672C44.9228 12.4301 45.1078 12.3527 45.301 12.3521C45.4942 12.3514 45.6798 12.4275 45.8169 12.5637C45.9539 12.6998 46.0313 12.8848 46.032 13.0781C46.0323 13.1737 46.0138 13.2685 45.9775 13.357C45.9412 13.4455 45.8878 13.526 45.8204 13.5939C45.6842 13.731 45.4992 13.8084 45.306 13.8091C45.2103 13.8094 45.1155 13.7909 45.027 13.7546C44.9385 13.7183 44.858 13.6649 44.7901 13.5974C44.6531 13.4613 44.5757 13.2763 44.575 13.0831Z" fill="#00F0FF"/>
<path d="M43.726 13.824C43.7296 13.922 43.7134 14.0198 43.6784 14.1115C43.6434 14.2032 43.5902 14.2869 43.5221 14.3575C43.454 14.4282 43.3724 14.4844 43.2821 14.5228C43.1918 14.5612 43.0946 14.581 42.9965 14.581C42.8984 14.581 42.8012 14.5612 42.7109 14.5228C42.6206 14.4844 42.5389 14.4282 42.4708 14.3575C42.4027 14.2869 42.3496 14.2032 42.3146 14.1115C42.2795 14.0198 42.2634 13.922 42.267 13.824C42.274 13.6352 42.3539 13.4564 42.4899 13.3253C42.626 13.1942 42.8076 13.121 42.9965 13.121C43.1854 13.121 43.367 13.1942 43.503 13.3253C43.6391 13.4564 43.719 13.6352 43.726 13.824Z" fill="#00F0FF"/>
<path d="M41.794 15.551C41.7977 15.6489 41.7816 15.7466 41.7467 15.8382C41.7118 15.9298 41.6588 16.0134 41.5908 16.084C41.5228 16.1546 41.4413 16.2108 41.3512 16.2492C41.261 16.2876 41.164 16.3074 41.066 16.3075C40.968 16.3076 40.871 16.2879 40.7808 16.2496C40.6906 16.2113 40.609 16.1552 40.5409 16.0847C40.4729 16.0142 40.4197 15.9306 40.3847 15.8391C40.3497 15.7476 40.3334 15.6499 40.337 15.552C40.3439 15.3635 40.4235 15.1849 40.5593 15.0539C40.6951 14.9229 40.8763 14.8496 41.065 14.8495C41.2537 14.8494 41.4351 14.9224 41.571 15.0532C41.707 15.184 41.7869 15.3625 41.794 15.551Z" fill="#00F0FF"/>
<path d="M40.81 17.969C40.81 18.1626 40.7331 18.3483 40.5962 18.4852C40.4593 18.6221 40.2736 18.699 40.08 18.699C39.8864 18.699 39.7007 18.6221 39.5638 18.4852C39.4269 18.3483 39.35 18.1626 39.35 17.969C39.35 17.7754 39.4269 17.5897 39.5638 17.4528C39.7007 17.3159 39.8864 17.239 40.08 17.239C40.2736 17.239 40.4593 17.3159 40.5962 17.4528C40.7331 17.5897 40.81 17.7754 40.81 17.969Z" fill="#00F0FF"/>
<path d="M40.81 20.3581C40.81 20.5517 40.7331 20.7373 40.5962 20.8742C40.4593 21.0111 40.2736 21.0881 40.08 21.0881C39.8864 21.0881 39.7007 21.0111 39.5638 20.8742C39.4269 20.7373 39.35 20.5517 39.35 20.3581C39.35 20.1644 39.4269 19.9788 39.5638 19.8419C39.7007 19.705 39.8864 19.6281 40.08 19.6281C40.2736 19.6281 40.4593 19.705 40.5962 19.8419C40.7331 19.9788 40.81 20.1644 40.81 20.3581Z" fill="#00F0FF"/>
<path d="M43.09 20.3581C43.09 20.5517 43.0131 20.7373 42.8762 20.8742C42.7393 21.0111 42.5536 21.0881 42.36 21.0881C42.1664 21.0881 41.9807 21.0111 41.8438 20.8742C41.7069 20.7373 41.63 20.5517 41.63 20.3581C41.63 20.1644 41.7069 19.9788 41.8438 19.8419C41.9807 19.705 42.1664 19.6281 42.36 19.6281C42.5536 19.6281 42.7393 19.705 42.8762 19.8419C43.0131 19.9788 43.09 20.1644 43.09 20.3581Z" fill="#00F0FF"/>
<path d="M43.09 18.1439C43.09 18.3375 43.0131 18.5232 42.8762 18.6601C42.7393 18.797 42.5536 18.8739 42.36 18.8739C42.1664 18.8739 41.9807 18.797 41.8438 18.6601C41.7069 18.5232 41.63 18.3375 41.63 18.1439C41.63 17.9503 41.7069 17.7647 41.8438 17.6278C41.9807 17.4909 42.1664 17.4139 42.36 17.4139C42.5536 17.4139 42.7393 17.4909 42.8762 17.6278C43.0131 17.7647 43.09 17.9503 43.09 18.1439Z" fill="#00F0FF"/>
<path d="M44.008 16.091C44.0117 16.189 43.9956 16.2866 43.9607 16.3782C43.9258 16.4698 43.8728 16.5534 43.8048 16.624C43.7368 16.6946 43.6554 16.7508 43.5652 16.7892C43.475 16.8276 43.378 16.8475 43.28 16.8475C43.182 16.8476 43.085 16.8279 42.9948 16.7896C42.9046 16.7513 42.823 16.6953 42.7549 16.6247C42.6869 16.5542 42.6337 16.4707 42.5987 16.3792C42.5637 16.2876 42.5474 16.19 42.551 16.092C42.5579 15.9035 42.6375 15.7249 42.7733 15.5939C42.9091 15.4629 43.0904 15.3897 43.279 15.3895C43.4677 15.3894 43.6491 15.4624 43.785 15.5932C43.921 15.7241 44.0009 15.9025 44.008 16.091Z" fill="#00F0FF"/>
<path d="M46.006 15.175C46.0096 15.2731 45.9935 15.3709 45.9584 15.4626C45.9234 15.5543 45.8702 15.6379 45.8022 15.7086C45.7341 15.7793 45.6524 15.8355 45.5621 15.8739C45.4718 15.9123 45.3746 15.932 45.2765 15.932C45.1784 15.932 45.0812 15.9123 44.9909 15.8739C44.9006 15.8355 44.8189 15.7793 44.7508 15.7086C44.6827 15.6379 44.6296 15.5543 44.5946 15.4626C44.5595 15.3709 44.5434 15.2731 44.547 15.175C44.554 14.9862 44.6339 14.8075 44.77 14.6764C44.906 14.5453 45.0876 14.472 45.2765 14.472C45.4654 14.472 45.647 14.5453 45.783 14.6764C45.9191 14.8075 45.999 14.9862 46.006 15.175Z" fill="#00F0FF"/>
<path d="M48.443 13.371C48.443 13.5837 48.3585 13.7877 48.2081 13.9381C48.0577 14.0885 47.8537 14.173 47.641 14.173C47.4283 14.173 47.2243 14.0885 47.0739 13.9381C46.9235 13.7877 46.839 13.5837 46.839 13.371C46.839 13.1583 46.9235 12.9543 47.0739 12.8039C47.2243 12.6535 47.4283 12.569 47.641 12.569C47.8537 12.569 48.0577 12.6535 48.2081 12.8039C48.3585 12.9543 48.443 13.1583 48.443 13.371Z" fill="#00F0FF"/>
<path d="M48.348 15.897C48.348 16.0023 48.3273 16.1066 48.287 16.2039C48.2467 16.3012 48.1876 16.3896 48.1131 16.4641C48.0386 16.5385 47.9502 16.5976 47.8529 16.6379C47.7556 16.6782 47.6513 16.699 47.546 16.699C47.4407 16.699 47.3364 16.6782 47.2391 16.6379C47.1418 16.5976 47.0534 16.5385 46.9789 16.4641C46.9044 16.3896 46.8454 16.3012 46.8051 16.2039C46.7647 16.1066 46.744 16.0023 46.744 15.897C46.744 15.6843 46.8285 15.4803 46.9789 15.3299C47.1293 15.1795 47.3333 15.095 47.546 15.095C47.7587 15.095 47.9627 15.1795 48.1131 15.3299C48.2635 15.4803 48.348 15.6843 48.348 15.897Z" fill="#00F0FF"/>
<path d="M50.642 14.682C50.642 14.8947 50.5575 15.0987 50.4071 15.2491C50.2567 15.3995 50.0527 15.484 49.84 15.484C49.6273 15.484 49.4233 15.3995 49.2729 15.2491C49.1225 15.0987 49.038 14.8947 49.038 14.682C49.038 14.4693 49.1225 14.2653 49.2729 14.1149C49.4233 13.9645 49.6273 13.88 49.84 13.88C50.0527 13.88 50.2567 13.9645 50.4071 14.1149C50.5575 14.2653 50.642 14.4693 50.642 14.682Z" fill="#00F0FF"/>
</svg>
