<svg width="32" height="32" viewBox="0 0 32 32" fill="none" xmlns="http://www.w3.org/2000/svg">
<path d="M16 3C8.832 3 3 8.832 3 16C3 23.168 8.832 29 16 29C23.168 29 29 23.168 29 16C29 8.832 23.168 3 16 3ZM16 5C22.065 5 27 9.935 27 16C27 22.065 22.065 27 16 27C9.935 27 5 22.065 5 16C5 9.935 9.935 5 16 5ZM11 12C8.906 12 7.39 13.207 7.39 13.207L8.61 14.793C8.61 14.793 9.692 14 11.001 14C12.31 14 13.391 14.793 13.391 14.793L14.611 13.207C14.608 13.207 13.093 12 11 12ZM21 12C18.906 12 17.39 13.207 17.39 13.207L18.61 14.793C18.61 14.793 19.692 14 21.001 14C22.31 14 23.391 14.793 23.391 14.793L24.611 13.207C24.608 13.207 23.093 12 21 12ZM10.81 19L9.09 20C9.78448 21.194 10.7724 22.1908 11.96 22.896C12.257 23.072 12.564 23.229 12.883 23.366C13.5319 23.6426 14.215 23.8309 14.914 23.926C15.6346 24.0249 16.3654 24.0249 17.086 23.926C18.8209 23.6859 20.4281 22.8799 21.658 21.633C22.1427 21.1438 22.5634 20.5951 22.91 20L21.19 19C20.526 20.1514 19.4983 21.0495 18.2683 21.5533C17.0384 22.057 15.6759 22.1378 14.395 21.783C13.8915 21.6436 13.4086 21.4381 12.959 21.172C12.0682 20.6447 11.3283 19.8966 10.811 19H10.81Z" fill="#FF007A"/>
</svg>
