<svg width="29" height="32" viewBox="0 0 29 32" fill="none" xmlns="http://www.w3.org/2000/svg">
<path d="M14.5 15.822C17.8368 15.822 20.5417 12.9105 20.5417 9.31895C20.5417 5.72742 17.8368 2.81592 14.5 2.81592C11.1633 2.81592 8.45837 5.72742 8.45837 9.31895C8.45837 12.9105 11.1633 15.822 14.5 15.822Z" stroke="#FF238D" stroke-width="2"/>
<path d="M20.5417 18.4231H20.967C21.8504 18.4234 22.7033 18.7708 23.3655 19.4002C24.0276 20.0296 24.4535 20.8976 24.563 21.8411L25.0355 25.9042C25.078 26.2702 25.0477 26.6418 24.9466 26.9942C24.8454 27.3467 24.6758 27.672 24.449 27.9485C24.2222 28.225 23.9433 28.4464 23.6309 28.598C23.3185 28.7497 22.9797 28.828 22.6369 28.8279H6.36312C6.02041 28.828 5.68161 28.7497 5.3692 28.598C5.05678 28.4464 4.77791 28.225 4.55107 27.9485C4.32423 27.672 4.15463 27.3467 4.05351 26.9942C3.9524 26.6418 3.92208 26.2702 3.96457 25.9042L4.43582 21.8411C4.54542 20.8971 4.97162 20.0288 5.63429 19.3994C6.29696 18.7699 7.15044 18.4227 8.03424 18.4231H8.45837" stroke="#FF238D" stroke-width="2" stroke-linecap="round" stroke-linejoin="round"/>
</svg>
