<svg width="21" height="21" viewBox="0 0 21 21" fill="none" xmlns="http://www.w3.org/2000/svg">
<path d="M10.5 3.91992C9.83889 3.91992 9.19265 4.11596 8.64298 4.48323C8.09331 4.85051 7.66489 5.37254 7.4119 5.9833C7.15892 6.59407 7.09273 7.26613 7.2217 7.91451C7.35067 8.56289 7.66901 9.15847 8.13647 9.62593C8.60393 10.0934 9.1995 10.4117 9.84788 10.5407C10.4963 10.6697 11.1683 10.6035 11.7791 10.3505C12.3899 10.0975 12.9119 9.66909 13.2792 9.11942C13.6464 8.56975 13.8425 7.92351 13.8425 7.26242C13.8425 6.37594 13.4903 5.52576 12.8635 4.89892C12.2366 4.27208 11.3865 3.91992 10.5 3.91992ZM10.5 9.43826C10.0696 9.43826 9.64896 9.31065 9.29114 9.07156C8.93333 8.83248 8.65445 8.49266 8.48976 8.09508C8.32508 7.6975 8.28199 7.26001 8.36595 6.83794C8.4499 6.41587 8.65713 6.02817 8.96143 5.72388C9.26572 5.41958 9.65342 5.21235 10.0755 5.1284C10.4976 5.04444 10.935 5.08753 11.3326 5.25221C11.7302 5.4169 12.07 5.69578 12.3091 6.05359C12.5482 6.41141 12.6758 6.83208 12.6758 7.26242C12.6743 7.83848 12.4443 8.39041 12.0365 8.7972C11.6286 9.20399 11.076 9.43243 10.5 9.43242V9.43826Z" fill="#FF238D"/>
<path d="M10.5001 1.16675C8.68312 1.16827 6.94058 1.88873 5.65306 3.17079C4.36554 4.45284 3.63766 6.1923 3.62842 8.00925C3.62842 10.7334 5.15675 13.0142 6.27675 14.6767L6.48092 14.9801C7.59525 16.5951 8.79067 18.1527 10.0626 19.6467L10.5059 20.1659L10.9493 19.6467C12.221 18.1525 13.4164 16.595 14.5309 14.9801L14.7351 14.6709C15.8493 13.0084 17.3776 10.7334 17.3776 8.00925C17.3683 6.19129 16.6397 4.45095 15.3509 3.16873C14.0621 1.88651 12.3181 1.16672 10.5001 1.16675ZM13.7609 14.0001L13.5509 14.3092C12.5476 15.8142 11.2176 17.5001 10.5001 18.3342C9.81175 17.5001 8.45258 15.8142 7.44925 14.3092L7.24508 14.0001C6.21258 12.4601 4.79508 10.3542 4.79508 7.98591C4.79508 7.23672 4.94265 6.49487 5.22935 5.80271C5.51606 5.11054 5.93628 4.48163 6.46604 3.95187C6.9958 3.42211 7.62471 3.00189 8.31687 2.71518C9.00904 2.42848 9.75089 2.28091 10.5001 2.28091C11.2493 2.28091 11.9911 2.42848 12.6833 2.71518C13.3755 3.00189 14.0044 3.42211 14.5341 3.95187C15.0639 4.48163 15.4841 5.11054 15.7708 5.80271C16.0575 6.49487 16.2051 7.23672 16.2051 7.98591C16.2051 10.3776 14.7934 12.4834 13.7609 14.0001Z" fill="#FF238D"/>
</svg>
