<svg width="32" height="32" viewBox="0 0 32 32" fill="none" xmlns="http://www.w3.org/2000/svg">
<path d="M15.9112 15.3778C18.3112 15.3778 20.1779 13.4223 20.1779 11.0223C20.1779 8.62228 18.2223 6.75562 15.8223 6.75562C13.4223 6.75562 11.5557 8.71117 11.5557 11.0223C11.5557 13.4223 13.5112 15.3778 15.9112 15.3778ZM15.8223 8.53339C15.9112 8.53339 15.9112 8.53339 15.8223 8.53339C17.2446 8.53339 18.4001 9.68895 18.4001 11.1112C18.4001 12.5334 17.2446 13.6001 15.8223 13.6001C14.4001 13.6001 13.3334 12.4445 13.3334 11.1112C13.3334 9.68895 14.489 8.53339 15.8223 8.53339Z" fill="#FF238D"/>
<path d="M29.0666 14.8444C27.3777 13.3333 25.1555 12.5333 22.8444 12.6222H22.1333C21.9555 13.3333 21.6888 13.9555 21.3333 14.4888C21.8666 14.3999 22.311 14.3999 22.8444 14.3999C24.5333 14.3111 26.2221 14.8444 27.5555 15.8222V22.2222H29.3333V15.1111L29.0666 14.8444Z" fill="#FF238D"/>
<path d="M20.8001 6.93338C21.2446 5.86671 22.489 5.33338 23.6446 5.77782C24.7112 6.22227 25.2446 7.46671 24.8001 8.62227C24.4446 9.42227 23.6446 9.9556 22.8446 9.9556C22.6668 9.9556 22.4001 9.9556 22.2223 9.86671C22.3112 10.3112 22.3112 10.7556 22.3112 11.1112V11.6445C22.489 11.6445 22.6668 11.7334 22.8446 11.7334C25.0668 11.7334 26.8446 9.9556 26.8446 7.82227C26.8446 5.60004 25.0668 3.82227 22.9334 3.82227C21.5112 3.82227 20.2668 4.53338 19.5557 5.77782C20.0001 6.04449 20.4446 6.40004 20.8001 6.93338Z" fill="#FF238D"/>
<path d="M10.6667 14.5777C10.3112 14.0444 10.0445 13.4222 9.86675 12.711H9.15564C6.84453 12.6222 4.6223 13.4222 2.93341 14.8444L2.66675 15.111V22.2222H4.44453V15.8222C5.86675 14.8444 7.46675 14.311 9.15564 14.3999C9.68897 14.3999 10.2223 14.4888 10.6667 14.5777Z" fill="#FF238D"/>
<path d="M9.15549 11.6445C9.33326 11.6445 9.51104 11.6445 9.68882 11.5556V11.0223C9.68882 10.5778 9.68882 10.1334 9.77771 9.77781C9.59993 9.8667 9.33326 9.8667 9.15549 9.8667C7.99993 9.8667 7.02215 8.88892 7.02215 7.73337C7.02215 6.57781 7.99993 5.60003 9.15549 5.60003C10.0444 5.60003 10.8444 6.13337 11.1999 6.93337C11.5555 6.48892 12.0888 6.04448 12.5333 5.68892C11.3777 3.82226 8.97771 3.20003 7.11104 4.35559C5.24437 5.51114 4.62215 7.91114 5.77771 9.77781C6.48882 10.9334 7.73326 11.6445 9.15549 11.6445Z" fill="#FF238D"/>
<path d="M23.2 20.1777L23.0222 19.911C21.2445 17.9555 18.7556 16.7999 16.0889 16.8888C13.4222 16.7999 10.8445 17.9555 9.06669 19.911L8.88892 20.1777V26.9333C8.88892 27.7333 9.51114 28.4444 10.4 28.4444H21.7778C22.5778 28.4444 23.2889 27.7333 23.2889 26.9333V20.1777H23.2ZM21.4222 26.6666H10.6667V20.7999C12.0889 19.3777 14.0445 18.6666 16.0889 18.6666C18.0445 18.5777 20 19.3777 21.4222 20.7999V26.6666Z" fill="#FF238D"/>
</svg>
